ply
format ascii 1.0
element vertex 400
property float x
property float y
property float z
end_header
26790.000000 35459.000000 154828.000000
34641.000000 8842.000000 27.000000
22386.000000 53598.000000 71589.000000
37322.000000 113.000000 102801.000000
25258.000000 63371.000000 15100.000000
41821.000000 12864.000000 49568.000000
1790.000000 31821.000000 109120.000000
46216.000000 44267.000000 113716.000000
51642.000000 32395.000000 79248.000000
51724.000000 18417.000000 136886.000000
17407.000000 55661.000000 128652.000000
18556.000000 41750.000000 40185.000000
21555.000000 22055.000000 84993.000000
43066.000000 30411.000000 22568.000000
24385.000000 17842.000000 123673.000000
59417.000000 18608.000000 108546.000000
20659.000000 51735.000000 100312.000000
11662.000000 43310.000000 128.000000
46068.000000 43502.000000 139567.000000
37130.000000 33722.000000 60291.000000
39775.000000 50778.000000 87099.000000
39252.000000 14204.000000 72546.000000
41343.000000 34119.000000 86.000000
41859.000000 20140.000000 94759.000000
15301.000000 35711.000000 61057.000000
17917.000000 35076.000000 135162.000000
13026.000000 40821.000000 84610.000000
16951.000000 18800.000000 104716.000000
32534.000000 21098.000000 167455.000000
28130.000000 57846.000000 33866.000000
33300.000000 24142.000000 140141.000000
43258.000000 17268.000000 119267.000000
28896.000000 51396.000000 143588.000000
29279.000000 50204.000000 53849.000000
6999.000000 49821.000000 113716.000000
33683.000000 25976.000000 38461.000000
56087.000000 30585.000000 123099.000000
35981.000000 53743.000000 126354.000000
50981.000000 36416.000000 97439.000000
27173.000000 53842.000000 57.000000
20215.000000 48097.000000 21802.000000
34233.000000 41970.000000 74270.000000
14214.000000 36034.000000 119078.000000
47279.000000 18432.000000 33100.000000
40861.000000 20715.000000 9547.000000
23152.000000 19710.000000 152205.000000
25856.000000 28440.000000 70823.000000
14078.000000 36799.000000 100120.000000
36364.000000 50723.000000 102801.000000
46513.000000 29523.000000 146999.000000
29854.000000 11812.000000 110269.000000
47279.000000 21825.000000 61248.000000
25066.000000 52518.000000 115248.000000
31960.000000 19055.000000 59716.000000
25258.000000 54958.000000 86333.000000
49194.000000 9417.000000 102498.000000
18822.000000 55565.000000 44972.000000
15597.000000 50204.000000 59142.000000
28130.000000 15541.000000 96099.000000
44180.000000 27034.000000 48227.000000
15301.000000 48055.000000 140716.000000
39141.000000 30289.000000 159098.000000
56853.000000 16615.000000 122524.000000
55559.000000 32778.000000 136886.000000
25066.000000 32551.000000 168098.000000
52748.000000 30480.000000 109695.000000
12428.000000 44217.000000 71397.000000
50726.000000 42593.000000 126737.000000
46818.000000 20140.000000 82120.000000
35981.000000 15353.000000 130355.000000
31536.000000 51544.000000 15483.000000
38279.000000 39863.000000 149782.000000
34045.000000 17459.000000 84418.000000
36641.000000 19183.000000 25249.000000
23917.000000 38516.000000 51674.000000
14858.000000 23395.000000 116588.000000
45271.000000 37565.000000 69482.000000
36173.000000 32267.000000 12036.000000
16449.000000 53076.000000 32802.000000
14918.000000 32441.000000 75418.000000
48982.000000 42161.000000 86525.000000
20337.000000 53076.000000 10313.000000
26790.000000 45698.000000 31951.000000
22308.000000 22629.000000 134779.000000
35215.000000 21314.000000 151822.000000
44407.000000 30135.000000 34632.000000
13806.000000 44076.000000 128077.000000
16258.000000 26076.000000 95046.000000
47853.000000 30480.000000 9329.000000
37322.000000 52059.000000 114673.000000
24300.000000 30672.000000 144250.000000
21479.000000 22246.000000 163694.000000
40768.000000 15426.000000 107971.000000
31209.000000 48863.000000 65270.000000
29554.000000 50012.000000 42291.000000
5726.000000 25885.000000 100056.000000
44981.000000 46449.000000 96482.000000
32821.000000 19949.000000 48227.000000
51063.000000 25119.000000 99546.000000
15492.000000 54033.000000 104.000000
32561.000000 61310.000000 6675.000000
38067.000000 15544.000000 39036.000000
16030.000000 50970.000000 80589.000000
13302.000000 41970.000000 50142.000000
22960.000000 41692.000000 146269.000000
10896.000000 47140.000000 103481.000000
14918.000000 56692.000000 117737.000000
15875.000000 27608.000000 126943.000000
33109.000000 19949.000000 9.000000
21738.000000 58820.000000 24674.000000
37896.000000 50970.000000 136993.000000
29133.000000 18417.000000 74461.000000
48436.000000 24544.000000 71972.000000
27556.000000 55587.000000 133439.000000
31577.000000 52225.000000 77716.000000
40960.000000 12789.000000 60674.000000
47279.000000 20262.000000 22185.000000
4960.000000 21453.000000 110078.000000
50323.000000 27800.000000 89014.000000
26407.000000 34451.000000 61631.000000
16071.000000 48672.000000 91120.000000
57236.000000 15161.000000 98731.000000
44459.000000 23970.000000 164.000000
33492.000000 13469.000000 120226.000000
32726.000000 54717.000000 93801.000000
50608.000000 14012.000000 111801.000000
58194.000000 23587.000000 130539.000000
15576.000000 30672.000000 85759.000000
20854.000000 15386.000000 113907.000000
34584.000000 29714.000000 51100.000000
47746.000000 18608.000000 43440.000000
10130.000000 37757.000000 109820.000000
61266.000000 24161.000000 116971.000000
46130.000000 15501.000000 128843.000000
35215.000000 28633.000000 28696.000000
43258.000000 22489.000000 140524.000000
43066.000000 47628.000000 122716.000000
43449.000000 42107.000000 78291.000000
51721.000000 40055.000000 106631.000000
22834.000000 61118.000000 5143.000000
32534.000000 36458.000000 162928.000000
51934.000000 36991.000000 116971.000000
17180.000000 51735.000000 109503.000000
20496.000000 28183.000000 156035.000000
28692.000000 52118.000000 24866.000000
46334.000000 31438.000000 62014.000000
34066.000000 33544.000000 69424.000000
14152.000000 45547.000000 118503.000000
27939.000000 53672.000000 106248.000000
29662.000000 17921.000000 158907.000000
40577.000000 8104.000000 98780.000000
12045.000000 26969.000000 107014.000000
20193.000000 46374.000000 3036.000000
41534.000000 15150.000000 1887.000000
37322.000000 24659.000000 17589.000000
24109.000000 53601.000000 61248.000000
26846.000000 54225.000000 124248.000000
9962.000000 52310.000000 124248.000000
53493.000000 25693.000000 142439.000000
29662.000000 42418.000000 58568.000000
47909.000000 19757.000000 52440.000000
50726.000000 21609.000000 116588.000000
34066.000000 13086.000000 102418.000000
44296.000000 46948.000000 131524.000000
43693.000000 46182.000000 105290.000000
32151.000000 27097.000000 63546.000000
36364.000000 46757.000000 144615.000000
37709.000000 27417.000000 4760.000000
24300.000000 13821.000000 103802.000000
33492.000000 29714.000000 168467.000000
20279.000000 55271.000000 53589.000000
49768.000000 36225.000000 142586.000000
14343.000000 48202.000000 44206.000000
21237.000000 26901.000000 77908.000000
21608.000000 53842.000000 139375.000000
4386.000000 43884.000000 108092.000000
30620.000000 4247.000000 106308.000000
34832.000000 12864.000000 54521.000000
32477.000000 14970.000000 67376.000000
25942.000000 42544.000000 44397.000000
26407.000000 22246.000000 144778.000000
20196.000000 18608.000000 95716.000000
45556.000000 25502.000000 15771.000000
28086.000000 50587.000000 7823.000000
29553.000000 59778.000000 21419.000000
18556.000000 31772.000000 67759.000000
39045.000000 28757.000000 150803.000000
45747.000000 17233.000000 68142.000000
14610.000000 36608.000000 91695.000000
36747.000000 22345.000000 160056.000000
51875.000000 39871.000000 134588.000000
18499.000000 45033.000000 32525.000000
45747.000000 18800.000000 101965.000000
30843.000000 40629.000000 66610.000000
14257.000000 35842.000000 127503.000000
30153.000000 20332.000000 133439.000000
50726.000000 22645.000000 107397.000000
47400.000000 25502.000000 28504.000000
30620.000000 42736.000000 149122.000000
13003.000000 50395.000000 133214.000000
20854.000000 58234.000000 37504.000000
16641.000000 49751.000000 67184.000000
37322.000000 47063.000000 80014.000000
34864.000000 19949.000000 33100.000000
47613.000000 26268.000000 40951.000000
39236.000000 6927.000000 106639.000000
26215.000000 54799.000000 47976.000000
42492.000000 30965.000000 54929.000000
13810.000000 41970.000000 135737.000000
33109.000000 54682.000000 85184.000000
15651.000000 44267.000000 97822.000000
14362.000000 43310.000000 63163.000000
27364.000000 18028.000000 88631.000000
40577.000000 15656.000000 80206.000000
34853.000000 17268.000000 92269.000000
7067.000000 42161.000000 115589.000000
21620.000000 49408.000000 145886.000000
11785.000000 30672.000000 113907.000000
21428.000000 54799.000000 17871.000000
40194.000000 28782.000000 41717.000000
55513.000000 35076.000000 129420.000000
24875.000000 53936.000000 94184.000000
59343.000000 26268.000000 109780.000000
63.000000 25310.000000 105290.000000
5918.000000 35459.000000 103694.000000
53789.000000 17076.000000 129581.000000
51989.000000 35076.000000 86525.000000
33979.000000 4438.000000 97439.000000
41534.000000 17797.000000 87482.000000
35407.000000 36102.000000 155843.000000
16067.000000 49055.000000 51630.000000
26215.000000 25119.000000 169170.000000
39428.000000 51381.000000 94950.000000
28705.000000 61466.000000 164.000000
23152.000000 54426.000000 79057.000000
41456.000000 18800.000000 134205.000000
22728.000000 33353.000000 161013.000000
13769.000000 37565.000000 68143.000000
42875.000000 32587.000000 15344.000000
54873.000000 13438.000000 105673.000000
51963.000000 28948.000000 116971.000000
12664.000000 39480.000000 77142.000000
41726.000000 34529.000000 7632.000000
30750.000000 58629.000000 13377.000000
36598.000000 12672.000000 113524.000000
24681.000000 48863.000000 14717.000000
56853.000000 16502.000000 115144.000000
29418.000000 21863.000000 67950.000000
22577.000000 29620.000000 137077.000000
31385.000000 54234.000000 118503.000000
48665.000000 31821.000000 72546.000000
50343.000000 15000.000000 119652.000000
45364.000000 19032.000000 112375.000000
18556.000000 22172.000000 122907.000000
44215.000000 39863.000000 145580.000000
18747.000000 39688.000000 140716.000000
26598.000000 13557.000000 117929.000000
45630.000000 17651.000000 75418.000000
26981.000000 18909.000000 81355.000000
27173.000000 56944.000000 41142.000000
12811.000000 29714.000000 100387.000000
38279.000000 24161.000000 145359.000000
47087.000000 21514.000000 89971.000000
17407.000000 37711.000000 54546.000000
52054.000000 31629.000000 102610.000000
48811.000000 38059.000000 75993.000000
22022.000000 26268.000000 149332.000000
40768.000000 18687.000000 19504.000000
20471.000000 56495.000000 122141.000000
33300.000000 25502.000000 56653.000000
28925.000000 43502.000000 51483.000000
35175.000000 24927.000000 10887.000000
49577.000000 43327.000000 119843.000000
60056.000000 24736.000000 123865.000000
30237.000000 14828.000000 126354.000000
38088.000000 47883.000000 109120.000000
48236.000000 42161.000000 100934.000000
29443.000000 51161.000000 35398.000000
34066.000000 14838.000000 77908.000000
49254.000000 25885.000000 78865.000000
29088.000000 51822.000000 71206.000000
40960.000000 17497.000000 30419.000000
36173.000000 30036.000000 21802.000000
36264.000000 14395.000000 45738.000000
49239.000000 41778.000000 93418.000000
32975.000000 19757.000000 41334.000000
17088.000000 23204.000000 110078.000000
43641.000000 45892.000000 84035.000000
14343.000000 29200.000000 120226.000000
25832.000000 45862.000000 25057.000000
39087.000000 14970.000000 124248.000000
19705.000000 41000.000000 46887.000000
39428.000000 36629.000000 66036.000000
34449.000000 26018.000000 45355.000000
39619.000000 16189.000000 99929.000000
18192.000000 53076.000000 26015.000000
11526.000000 54608.000000 111992.000000
29088.000000 53914.000000 99546.000000
52641.000000 18937.000000 102035.000000
46914.000000 25885.000000 55695.000000
15857.000000 49629.000000 73887.000000
14837.000000 43884.000000 56461.000000
42300.000000 34477.000000 149332.000000
45838.000000 24544.000000 6866.000000
56964.000000 26076.000000 136694.000000
31730.000000 54416.000000 111801.000000
15815.000000 52884.000000 39610.000000
26112.000000 36034.000000 147992.000000
24683.000000 43278.000000 37887.000000
53598.000000 37425.000000 123482.000000
19130.000000 52315.000000 86333.000000
45913.000000 16310.000000 57802.000000
45939.000000 10949.000000 108074.000000
41343.000000 31440.000000 28887.000000
21237.000000 57289.000000 1.000000
44695.000000 15544.000000 38461.000000
19896.000000 58515.000000 30993.000000
3630.000000 37948.000000 110844.000000
50421.000000 30289.000000 95142.000000
45364.000000 29854.000000 3036.000000
33875.000000 53995.000000 132673.000000
29279.000000 19338.000000 149907.000000
37896.000000 29580.000000 34823.000000
37950.000000 26842.000000 164651.000000
22577.000000 22242.000000 128269.000000
14420.000000 23395.000000 100695.000000
34460.000000 13247.000000 61248.000000
36747.000000 18225.000000 5113.000000
26981.000000 18991.000000 164741.000000
40194.000000 39863.000000 72863.000000
19896.000000 56013.000000 113524.000000
13769.000000 41944.000000 113141.000000
22141.000000 59203.000000 11270.000000
47470.000000 26368.000000 65844.000000
27364.000000 59717.000000 27738.000000
27282.000000 25119.000000 138035.000000
49194.000000 20906.000000 142392.000000
48126.000000 24544.000000 34823.000000
44392.000000 47523.000000 90163.000000
23343.000000 18919.000000 158524.000000
13258.000000 45225.000000 80014.000000
10705.000000 40821.000000 104248.000000
15784.000000 41012.000000 122716.000000
1932.000000 30672.000000 102418.000000
14152.000000 48480.000000 2892.000000
13817.000000 34885.000000 81355.000000
27173.000000 63725.000000 8972.000000
21237.000000 28566.000000 164883.000000
22273.000000 32395.000000 151630.000000
17891.000000 25502.000000 88823.000000
5535.000000 50064.000000 107588.000000
41726.000000 47775.000000 116397.000000
29088.000000 48015.000000 20079.000000
38471.000000 51606.000000 120992.000000
39549.000000 50970.000000 130758.000000
14098.000000 42736.000000 90546.000000
44215.000000 5412.000000 103184.000000
18173.000000 29331.000000 132657.000000
57947.000000 29714.000000 131716.000000
38471.000000 13308.000000 66419.000000
25487.000000 23395.000000 75035.000000
9647.000000 53459.000000 118120.000000
44981.000000 13055.000000 99789.000000
31051.000000 53842.000000 138226.000000
35790.000000 19968.000000 136311.000000
57811.000000 29050.000000 115056.000000
40960.000000 46866.000000 140524.000000
33982.000000 24736.000000 24100.000000
30417.000000 55757.000000 5143.000000
21811.000000 53959.000000 106056.000000
6022.000000 27225.000000 108163.000000
21428.000000 55757.000000 133324.000000
18364.000000 55948.000000 5299.000000
41917.000000 13360.000000 43440.000000
32751.000000 46948.000000 71014.000000
21045.000000 35229.000000 58759.000000
16258.000000 46980.000000 38078.000000
51304.000000 41204.000000 112567.000000
16449.000000 46956.000000 105865.000000
17790.000000 44502.000000 144928.000000
56295.000000 22629.000000 105099.000000
32459.000000 22821.000000 146077.000000
28896.000000 50240.000000 59908.000000
14817.000000 47523.000000 85376.000000
50475.000000 38331.000000 81738.000000
28959.000000 48480.000000 48036.000000
22003.000000 34693.000000 140422.000000
37705.000000 23778.000000 41.000000
9548.000000 32358.000000 107397.000000
46896.000000 23315.000000 95716.000000
26981.000000 47140.000000 147518.000000
20338.000000 17842.000000 119269.000000
14657.000000 31821.000000 95142.000000
32343.000000 18133.000000 53780.000000
20279.000000 30151.000000 73121.000000
41408.000000 49055.000000 100312.000000
22003.000000 60544.000000 19090.000000
9173.000000 47939.000000 120418.000000
36747.000000 32571.000000 164077.000000
20471.000000 15267.000000 107971.000000
